<!DOCTYPE svg PUBLIC "-//W3C//DTD SVG 1.1//EN" "http://www.w3.org/Graphics/SVG/1.1/DTD/svg11.dtd">
<!-- Uploaded to: SVG Repo, www.svgrepo.com, Transformed by: SVG Repo Mixer Tools -->
<svg width="201px" height="201px" viewBox="0 0 24.00 24.00" xmlns="http://www.w3.org/2000/svg" xmlns:xlink="http://www.w3.org/1999/xlink" fill="#000000" transform="matrix(1, 0, 0, 1, 0, 0)rotate(0)">
<g id="SVGRepo_bgCarrier" stroke-width="0"/>
<g id="SVGRepo_tracerCarrier" stroke-linecap="round" stroke-linejoin="round" stroke="#CCCCCC" stroke-width="0.528"/>
<g id="SVGRepo_iconCarrier"> <defs> <path id="box-a" d="M0,9 L18,9 L18,12 L0,12 L0,9 Z M7,0 L11,0 L11,7 L7,7 L7,0 Z"/> <path id="box-c" d="M14,8 L14,14 C14,14.5522847 13.5522847,15 13,15 L7,15 C6.44771525,15 6,14.5522847 6,14 L6,8 L2,8 L2,18 L18,18 L18,8 L14,8 Z M12,8 L8,8 L8,13 L12,13 L12,8 Z M2,6 L18,6 L15,2 L5,2 L2,6 Z M0,18 L0,6 C0,5.56725957 0.140355744,5.14619234 0.4,4.8 L3.4,0.8 C3.77770876,0.296388315 4.37048539,0 5,0 L15,0 C15.6295146,0 16.2222912,0.296388315 16.6,0.8 L19.6,4.8 C19.8596443,5.14619234 20,5.56725957 20,6 L20,18 C20,19.1045695 19.1045695,20 18,20 L2,20 C0.8954305,20 0,19.1045695 0,18 Z"/> </defs> <g fill="none" fill-rule="evenodd" transform="translate(2 2)"> <g transform="translate(1 7)"> <mask id="box-b" fill="#17c200"> <use xlink:href="#box-a"/> </mask> <use fill="#09d70c" xlink:href="#box-a"/> <g fill="#17c200" mask="url(#box-b)"> <rect width="24" height="24" transform="translate(-3 -9)"/> </g> </g> <mask id="box-d" fill="#17c200"> <use xlink:href="#box-c"/> </mask> <use fill="#0044b3" fill-rule="nonzero" xlink:href="#box-c"/> <g fill="#0044b3" mask="url(#box-d)"> <rect width="24" height="24" transform="translate(-2 -2)"/> </g> </g> </g>
</svg>