<!DOCTYPE svg PUBLIC "-//W3C//DTD SVG 1.1//EN" "http://www.w3.org/Graphics/SVG/1.1/DTD/svg11.dtd">
<!-- Uploaded to: SVG Repo, www.svgrepo.com, Transformed by: SVG Repo Mixer Tools -->
<svg fill="#273cdd" height="800px" width="800px" version="1.1" id="Capa_1" xmlns="http://www.w3.org/2000/svg" xmlns:xlink="http://www.w3.org/1999/xlink" viewBox="0 0 483.676 483.676" xml:space="preserve">
<g id="SVGRepo_bgCarrier" stroke-width="0"/>
<g id="SVGRepo_tracerCarrier" stroke-linecap="round" stroke-linejoin="round"/>
<g id="SVGRepo_iconCarrier"> <g> <path d="M239.895,220.859c20.859,0,37.769-16.925,37.769-37.786c0-20.868-16.91-37.794-37.769-37.794 c-20.878,0-37.786,16.926-37.786,37.794c0,1.216,0.252,2.362,0.363,3.556l-56.498,33.842c-7.662,4.599-10.162,14.531-5.563,22.204 c3.033,5.058,8.393,7.862,13.892,7.862c2.829,0,5.688-0.742,8.298-2.299l56.321-33.749 C224.929,218.504,232.134,220.859,239.895,220.859z"/> <path d="M18.838,413.722h446.001c10.415,0,18.837-8.439,18.837-18.845c0-10.407-8.422-18.846-18.837-18.846h-139.37v-37.146 c54.933-30.294,92.26-88.759,92.26-155.812c0-98.067-79.774-177.85-177.833-177.85c-98.06,0-177.852,79.783-177.852,177.85 c0,67.038,37.313,125.494,92.244,155.797v37.161H18.838C8.424,376.031,0,384.47,0,394.877C0,405.283,8.424,413.722,18.838,413.722z M106.102,183.073c0-73.77,60.021-133.791,133.793-133.791c73.769,0,133.774,60.021,133.774,133.791 s-60.005,133.783-133.774,133.783C166.124,316.856,106.102,256.843,106.102,183.073z"/> <path d="M464.839,440.761H18.838C8.424,440.761,0,449.201,0,459.607c0,10.406,8.424,18.845,18.838,18.845h446.001 c10.415,0,18.837-8.439,18.837-18.845C483.676,449.201,475.254,440.761,464.839,440.761z"/> </g> </g>
</svg>