<svg xmlns="http://www.w3.org/2000/svg" xmlns:xlink="http://www.w3.org/1999/xlink" width="100" zoomAndPan="magnify" viewBox="0 0 75 74.999997" height="100" preserveAspectRatio="xMidYMid meet" version="1.2"><defs><clipPath id="2c92e06a10"><path d="M 2.378906 23 L 52 23 L 52 56 L 2.378906 56 Z M 2.378906 23 "/></clipPath><clipPath id="a841c47b7b"><path d="M 9 53 L 72.273438 53 L 72.273438 58 L 9 58 Z M 9 53 "/></clipPath><clipPath id="4a8871c70c"><path d="M 52 50 L 64 50 L 64 61.746094 L 52 61.746094 Z M 52 50 "/></clipPath><clipPath id="6820fe2671"><path d="M 16 50 L 28 50 L 28 61.746094 L 16 61.746094 Z M 16 50 "/></clipPath><clipPath id="f37885bef4"><path d="M 19 13.011719 L 45 13.011719 L 45 37 L 19 37 Z M 19 13.011719 "/></clipPath><clipPath id="cf4716ceb9"><path d="M 19.519531 12.128906 L 44.894531 12.128906 L 44.894531 37.5 L 19.519531 37.5 Z M 19.519531 12.128906 "/></clipPath><clipPath id="e7aab04e29"><path d="M 32.207031 12.128906 C 25.199219 12.128906 19.519531 17.808594 19.519531 24.8125 C 19.519531 31.820312 25.199219 37.5 32.207031 37.5 C 39.214844 37.5 44.894531 31.820312 44.894531 24.8125 C 44.894531 17.808594 39.214844 12.128906 32.207031 12.128906 Z M 32.207031 12.128906 "/></clipPath></defs><g id="63213fbaca"><path style=" stroke:none;fill-rule:evenodd;fill:#262626;fill-opacity:1;" d="M 67.554688 31.804688 L 70.796875 44.621094 C 71.011719 45.480469 71.046875 46.398438 70.890625 47.324219 L 69.550781 55.300781 C 69.40625 56.136719 68.582031 56.816406 67.703125 56.816406 L 45.304688 56.816406 L 49.703125 30.28125 L 65.4375 30.277344 C 66.484375 30.277344 67.320312 30.882812 67.554688 31.804688 Z M 67.554688 31.804688 "/><g clip-rule="nonzero" clip-path="url(#2c92e06a10)"><path style=" stroke:none;fill-rule:evenodd;fill:#057bdd;fill-opacity:1;" d="M 16.882812 23.941406 L 49.085938 23.941406 C 50.371094 23.941406 51.234375 24.996094 51.019531 26.296875 L 46.640625 52.707031 C 46.425781 54.007812 45.207031 55.0625 43.925781 55.0625 L 9.390625 55.0625 L 10.363281 49.183594 L 3.28125 49.183594 C 2.691406 49.183594 2.296875 48.699219 2.394531 48.105469 C 2.492188 47.507812 3.050781 47.023438 3.636719 47.023438 L 15.683594 47.023438 L 16.105469 46.941406 C 16.515625 46.777344 16.847656 46.394531 16.921875 45.945312 C 16.992188 45.5 16.789062 45.117188 16.433594 44.953125 L 16.292969 44.921875 L 6.382812 44.921875 C 5.796875 44.921875 5.398438 44.4375 5.496094 43.84375 C 5.597656 43.246094 6.152344 42.765625 6.742188 42.765625 L 16.386719 42.765625 L 16.8125 42.679688 C 17.222656 42.515625 17.554688 42.132812 17.628906 41.6875 C 17.726562 41.089844 17.328125 40.605469 16.742188 40.605469 L 11.792969 40.605469 L 14.164062 26.296875 C 14.382812 24.996094 15.597656 23.941406 16.882812 23.941406 Z M 16.882812 23.941406 "/></g><g clip-rule="nonzero" clip-path="url(#a841c47b7b)"><path style=" stroke:none;fill-rule:evenodd;fill:#262626;fill-opacity:1;" d="M 9.726562 53.054688 L 38.414062 53.054688 L 38.414062 53.0625 C 38.414062 53.0625 71.214844 53.0625 71.214844 53.0625 C 71.90625 53.0625 72.371094 53.632812 72.257812 54.335938 L 71.992188 55.929688 C 71.875 56.632812 71.21875 57.203125 70.523438 57.203125 L 34.367188 57.203125 C 34.367188 57.203125 10.480469 57.203125 10.480469 57.203125 C 9.683594 57.203125 9.144531 56.546875 9.277344 55.738281 L 9.722656 53.054688 Z M 9.726562 53.054688 "/></g><g clip-rule="nonzero" clip-path="url(#4a8871c70c)"><path style=" stroke:none;fill-rule:evenodd;fill:#262626;fill-opacity:1;" d="M 52.550781 56.210938 C 53.058594 53.15625 55.996094 50.675781 59.113281 50.675781 C 62.230469 50.675781 64.347656 53.15625 63.839844 56.210938 C 63.332031 59.265625 60.394531 61.746094 57.277344 61.746094 C 54.160156 61.746094 52.042969 59.265625 52.550781 56.210938 Z M 52.550781 56.210938 "/></g><path style=" stroke:none;fill-rule:evenodd;fill:#ffffff;fill-opacity:1;" d="M 55.378906 56.238281 C 55.628906 54.71875 57.082031 53.484375 58.621094 53.484375 C 60.160156 53.484375 61.207031 54.71875 60.953125 56.238281 C 60.703125 57.761719 59.25 58.996094 57.710938 58.996094 C 56.171875 58.996094 55.125 57.761719 55.378906 56.238281 Z M 55.378906 56.238281 "/><path style=" stroke:none;fill-rule:evenodd;fill:#ffffff;fill-opacity:1;" d="M 50.324219 44.558594 C 50.355469 44.363281 50.535156 44.207031 50.726562 44.207031 L 52.4375 44.207031 C 52.628906 44.207031 52.757812 44.363281 52.722656 44.558594 L 52.679688 44.832031 C 52.648438 45.027344 52.46875 45.183594 52.277344 45.183594 L 50.566406 45.183594 C 50.375 45.183594 50.246094 45.023438 50.28125 44.832031 Z M 50.324219 44.558594 "/><path style=" stroke:none;fill-rule:evenodd;fill:#ffffff;fill-opacity:1;" d="M 53.609375 32.59375 L 63.433594 32.59375 C 64.222656 32.59375 64.847656 33.078125 65.019531 33.816406 L 67.417969 44.144531 C 67.53125 44.625 67.210938 45.171875 66.703125 45.367188 C 66.515625 45.4375 66.320312 45.453125 66.144531 45.414062 L 51.753906 42.101562 C 51.171875 41.96875 50.832031 41.429688 50.9375 40.804688 L 52.078125 33.921875 C 52.199219 33.1875 52.886719 32.597656 53.609375 32.59375 Z M 53.609375 32.59375 "/><g clip-rule="nonzero" clip-path="url(#6820fe2671)"><path style=" stroke:none;fill-rule:evenodd;fill:#262626;fill-opacity:1;" d="M 16.601562 56.210938 C 17.105469 53.15625 20.042969 50.675781 23.160156 50.675781 C 26.28125 50.675781 28.394531 53.15625 27.890625 56.210938 C 27.382812 59.265625 24.445312 61.746094 21.328125 61.746094 C 18.210938 61.746094 16.09375 59.265625 16.601562 56.210938 Z M 16.601562 56.210938 "/></g><path style=" stroke:none;fill-rule:evenodd;fill:#ffffff;fill-opacity:1;" d="M 19.425781 56.238281 C 19.679688 54.71875 21.136719 53.484375 22.683594 53.484375 C 24.226562 53.484375 25.277344 54.71875 25.023438 56.238281 C 24.769531 57.761719 23.3125 58.996094 21.769531 58.996094 C 20.222656 58.996094 19.175781 57.761719 19.425781 56.238281 Z M 19.425781 56.238281 "/><g clip-rule="nonzero" clip-path="url(#f37885bef4)"><path style=" stroke:none;fill-rule:evenodd;fill:#faca00;fill-opacity:1;" d="M 44.039062 24.996094 C 44.039062 18.375 38.640625 13.011719 31.976562 13.011719 C 25.316406 13.011719 19.917969 18.375 19.917969 24.996094 C 19.917969 31.613281 25.316406 36.980469 31.976562 36.980469 C 38.640625 36.980469 44.039062 31.613281 44.039062 24.996094 Z M 44.039062 24.996094 "/></g><path style=" stroke:none;fill-rule:evenodd;fill:#ffffff;fill-opacity:1;" d="M 31.640625 16.949219 L 32.984375 16.949219 L 32.984375 18.769531 C 34.019531 18.921875 34.828125 19.34375 35.417969 20.042969 C 36.007812 20.738281 36.304688 21.625 36.304688 22.699219 L 33.441406 22.699219 C 33.441406 22.109375 33.328125 21.660156 33.101562 21.34375 C 32.878906 21.027344 32.554688 20.867188 32.136719 20.867188 C 31.765625 20.867188 31.476562 20.984375 31.269531 21.21875 C 31.066406 21.453125 30.960938 21.777344 30.960938 22.1875 C 30.960938 22.605469 31.082031 22.9375 31.316406 23.183594 C 31.554688 23.429688 31.933594 23.664062 32.460938 23.886719 C 32.984375 24.109375 33.480469 24.339844 33.945312 24.582031 C 34.410156 24.820312 34.8125 25.09375 35.152344 25.398438 C 35.492188 25.703125 35.757812 26.058594 35.949219 26.464844 C 36.140625 26.871094 36.234375 27.359375 36.234375 27.929688 C 36.234375 28.894531 35.929688 29.683594 35.316406 30.292969 C 34.703125 30.902344 33.871094 31.257812 32.816406 31.359375 L 32.816406 33.0625 L 31.46875 33.0625 L 31.46875 31.351562 C 30.238281 31.222656 29.296875 30.800781 28.636719 30.085938 C 27.980469 29.371094 27.652344 28.429688 27.652344 27.261719 L 30.503906 27.261719 C 30.503906 27.90625 30.648438 28.394531 30.933594 28.730469 C 31.21875 29.066406 31.621094 29.234375 32.148438 29.234375 C 32.53125 29.234375 32.832031 29.121094 33.050781 28.890625 C 33.273438 28.664062 33.382812 28.347656 33.382812 27.949219 C 33.382812 27.5 33.273438 27.152344 33.050781 26.898438 C 32.832031 26.644531 32.445312 26.402344 31.894531 26.179688 C 31.339844 25.953125 30.828125 25.722656 30.359375 25.492188 C 29.890625 25.261719 29.488281 24.992188 29.148438 24.6875 C 28.8125 24.382812 28.550781 24.03125 28.371094 23.628906 C 28.191406 23.226562 28.101562 22.742188 28.101562 22.171875 C 28.101562 21.21875 28.421875 20.433594 29.066406 19.8125 C 29.707031 19.195312 30.566406 18.835938 31.640625 18.734375 Z M 31.640625 16.949219 "/><g clip-rule="nonzero" clip-path="url(#cf4716ceb9)"><g clip-rule="nonzero" clip-path="url(#e7aab04e29)"><path style=" stroke:none;fill-rule:nonzero;fill:#262626;fill-opacity:1;" d="M 19.519531 12.128906 L 44.894531 12.128906 L 44.894531 37.5 L 19.519531 37.5 Z M 19.519531 12.128906 "/></g></g><g style="fill:#057bdd;fill-opacity:1;"><g transform="translate(22.791504, 24.797644)"><path style="stroke:none" d="M 0.40625 -3.296875 C 0.519531 -3.941406 0.753906 -4.515625 1.109375 -5.015625 C 1.472656 -5.515625 1.925781 -5.90625 2.46875 -6.1875 C 3.019531 -6.476562 3.617188 -6.625 4.265625 -6.625 C 4.796875 -6.625 5.265625 -6.523438 5.671875 -6.328125 C 6.078125 -6.128906 6.390625 -5.84375 6.609375 -5.46875 C 6.828125 -5.101562 6.945312 -4.675781 6.96875 -4.1875 L 5.015625 -4.1875 C 4.941406 -4.425781 4.8125 -4.609375 4.625 -4.734375 C 4.4375 -4.867188 4.207031 -4.9375 3.9375 -4.9375 C 3.507812 -4.9375 3.144531 -4.785156 2.84375 -4.484375 C 2.539062 -4.191406 2.347656 -3.796875 2.265625 -3.296875 C 2.234375 -3.160156 2.21875 -3.019531 2.21875 -2.875 C 2.21875 -2.488281 2.316406 -2.1875 2.515625 -1.96875 C 2.722656 -1.75 3.003906 -1.640625 3.359375 -1.640625 C 3.628906 -1.640625 3.878906 -1.703125 4.109375 -1.828125 C 4.347656 -1.960938 4.539062 -2.148438 4.6875 -2.390625 L 6.671875 -2.390625 C 6.367188 -1.640625 5.894531 -1.046875 5.25 -0.609375 C 4.613281 -0.171875 3.890625 0.046875 3.078125 0.046875 C 2.515625 0.046875 2.023438 -0.0625 1.609375 -0.28125 C 1.203125 -0.5 0.890625 -0.804688 0.671875 -1.203125 C 0.453125 -1.597656 0.34375 -2.054688 0.34375 -2.578125 C 0.34375 -2.816406 0.363281 -3.054688 0.40625 -3.296875 Z M 0.40625 -3.296875 "/></g></g><g style="fill:#057bdd;fill-opacity:1;"><g transform="translate(29.842844, 24.797644)"><path style="stroke:none" d="M 3.34375 -5.28125 C 4.019531 -5.28125 4.554688 -5.097656 4.953125 -4.734375 C 5.359375 -4.367188 5.5625 -3.867188 5.5625 -3.234375 C 5.5625 -3.023438 5.546875 -2.835938 5.515625 -2.671875 C 5.472656 -2.472656 5.4375 -2.332031 5.40625 -2.25 L 1.953125 -2.25 C 1.941406 -2.207031 1.9375 -2.148438 1.9375 -2.078125 C 1.9375 -1.847656 1.992188 -1.675781 2.109375 -1.5625 C 2.222656 -1.445312 2.378906 -1.390625 2.578125 -1.390625 C 2.878906 -1.390625 3.117188 -1.523438 3.296875 -1.796875 L 5.234375 -1.796875 C 5.085938 -1.441406 4.875 -1.125 4.59375 -0.84375 C 4.3125 -0.5625 3.976562 -0.335938 3.59375 -0.171875 C 3.21875 -0.015625 2.816406 0.0625 2.390625 0.0625 C 1.703125 0.0625 1.15625 -0.117188 0.75 -0.484375 C 0.351562 -0.859375 0.15625 -1.375 0.15625 -2.03125 C 0.15625 -2.21875 0.175781 -2.410156 0.21875 -2.609375 C 0.3125 -3.160156 0.503906 -3.632812 0.796875 -4.03125 C 1.097656 -4.425781 1.46875 -4.734375 1.90625 -4.953125 C 2.34375 -5.171875 2.820312 -5.28125 3.34375 -5.28125 Z M 3.71875 -3.0625 C 3.726562 -3.15625 3.734375 -3.210938 3.734375 -3.234375 C 3.734375 -3.429688 3.671875 -3.582031 3.546875 -3.6875 C 3.421875 -3.789062 3.257812 -3.84375 3.0625 -3.84375 C 2.832031 -3.84375 2.632812 -3.773438 2.46875 -3.640625 C 2.300781 -3.515625 2.175781 -3.320312 2.09375 -3.0625 Z M 3.71875 -3.0625 "/></g></g><g style="fill:#057bdd;fill-opacity:1;"><g transform="translate(35.573222, 24.797644)"><path style="stroke:none" d="M 3.90625 -2.59375 L 5.53125 0 L 3.3125 0 L 2.265625 -2.125 L 1.875 0 L 0.046875 0 L 1.265625 -6.875 L 3.09375 -6.875 L 2.4375 -3.171875 L 4.234375 -5.21875 L 6.421875 -5.21875 Z M 3.90625 -2.59375 "/></g></g><g style="fill:#057bdd;fill-opacity:1;"><g transform="translate(21.658979, 28.82162)"><path style="stroke:none" d="M 1.484375 0.03125 C 1.234375 0.03125 1.007812 -0.0195312 0.8125 -0.125 C 0.613281 -0.226562 0.460938 -0.375 0.359375 -0.5625 C 0.253906 -0.757812 0.203125 -0.984375 0.203125 -1.234375 C 0.203125 -1.597656 0.273438 -1.921875 0.421875 -2.203125 C 0.578125 -2.484375 0.789062 -2.703125 1.0625 -2.859375 C 1.332031 -3.015625 1.644531 -3.09375 2 -3.09375 C 2.257812 -3.09375 2.488281 -3.035156 2.6875 -2.921875 C 2.882812 -2.816406 3.035156 -2.671875 3.140625 -2.484375 C 3.242188 -2.296875 3.296875 -2.078125 3.296875 -1.828125 C 3.296875 -1.472656 3.21875 -1.148438 3.0625 -0.859375 C 2.914062 -0.578125 2.703125 -0.359375 2.421875 -0.203125 C 2.148438 -0.046875 1.835938 0.03125 1.484375 0.03125 Z M 1.625 -0.75 C 1.789062 -0.75 1.9375 -0.789062 2.0625 -0.875 C 2.195312 -0.96875 2.296875 -1.085938 2.359375 -1.234375 C 2.429688 -1.390625 2.46875 -1.550781 2.46875 -1.71875 C 2.46875 -1.90625 2.414062 -2.050781 2.3125 -2.15625 C 2.21875 -2.257812 2.078125 -2.3125 1.890625 -2.3125 C 1.722656 -2.3125 1.570312 -2.265625 1.4375 -2.171875 C 1.3125 -2.085938 1.210938 -1.972656 1.140625 -1.828125 C 1.078125 -1.679688 1.046875 -1.519531 1.046875 -1.34375 C 1.046875 -1.15625 1.09375 -1.007812 1.1875 -0.90625 C 1.289062 -0.800781 1.4375 -0.75 1.625 -0.75 Z M 1.625 -0.75 "/></g></g><g style="fill:#057bdd;fill-opacity:1;"><g transform="translate(25.053132, 28.82162)"><path style="stroke:none" d="M 2.046875 -2.4375 C 2.273438 -2.4375 2.457031 -2.367188 2.59375 -2.234375 C 2.726562 -2.097656 2.796875 -1.910156 2.796875 -1.671875 C 2.796875 -1.585938 2.785156 -1.5 2.765625 -1.40625 L 2.515625 0 L 1.671875 0 L 1.90625 -1.296875 C 1.914062 -1.335938 1.921875 -1.378906 1.921875 -1.421875 C 1.921875 -1.515625 1.890625 -1.59375 1.828125 -1.65625 C 1.765625 -1.71875 1.679688 -1.75 1.578125 -1.75 C 1.453125 -1.75 1.347656 -1.707031 1.265625 -1.625 C 1.179688 -1.550781 1.128906 -1.445312 1.109375 -1.3125 L 0.875 0 L 0.015625 0 L 0.453125 -2.421875 L 1.296875 -2.421875 L 1.234375 -2.078125 C 1.328125 -2.179688 1.441406 -2.265625 1.578125 -2.328125 C 1.722656 -2.398438 1.878906 -2.4375 2.046875 -2.4375 Z M 2.046875 -2.4375 "/></g></g><g style="fill:#057bdd;fill-opacity:1;"><g transform="translate(28.011697, 28.82162)"><path style="stroke:none" d="M 1.34375 -2.453125 C 1.507812 -2.453125 1.644531 -2.414062 1.75 -2.34375 C 1.863281 -2.28125 1.945312 -2.191406 2 -2.078125 L 2.046875 -2.421875 L 2.890625 -2.421875 L 2.46875 -0.03125 C 2.4375 0.195312 2.359375 0.398438 2.234375 0.578125 C 2.117188 0.765625 1.957031 0.910156 1.75 1.015625 C 1.550781 1.128906 1.316406 1.1875 1.046875 1.1875 C 0.691406 1.1875 0.414062 1.109375 0.21875 0.953125 C 0.0195312 0.796875 -0.078125 0.578125 -0.078125 0.296875 L -0.0625 0.21875 L 0.765625 0.21875 C 0.765625 0.289062 0.796875 0.347656 0.859375 0.390625 C 0.921875 0.429688 1.003906 0.453125 1.109375 0.453125 C 1.398438 0.453125 1.570312 0.289062 1.625 -0.03125 L 1.6875 -0.34375 C 1.601562 -0.226562 1.492188 -0.132812 1.359375 -0.0625 C 1.222656 0 1.078125 0.03125 0.921875 0.03125 C 0.660156 0.03125 0.453125 -0.0507812 0.296875 -0.21875 C 0.148438 -0.382812 0.078125 -0.613281 0.078125 -0.90625 C 0.078125 -1 0.0820312 -1.101562 0.09375 -1.21875 C 0.144531 -1.46875 0.234375 -1.679688 0.359375 -1.859375 C 0.484375 -2.046875 0.628906 -2.191406 0.796875 -2.296875 C 0.972656 -2.398438 1.15625 -2.453125 1.34375 -2.453125 Z M 1.84375 -1.21875 C 1.851562 -1.257812 1.859375 -1.296875 1.859375 -1.328125 C 1.859375 -1.453125 1.820312 -1.546875 1.75 -1.609375 C 1.6875 -1.679688 1.597656 -1.71875 1.484375 -1.71875 C 1.359375 -1.71875 1.242188 -1.671875 1.140625 -1.578125 C 1.046875 -1.492188 0.988281 -1.375 0.96875 -1.21875 C 0.957031 -1.164062 0.953125 -1.125 0.953125 -1.09375 C 0.953125 -0.96875 0.984375 -0.867188 1.046875 -0.796875 C 1.117188 -0.734375 1.207031 -0.703125 1.3125 -0.703125 C 1.4375 -0.703125 1.546875 -0.742188 1.640625 -0.828125 C 1.742188 -0.921875 1.8125 -1.050781 1.84375 -1.21875 Z M 1.84375 -1.21875 "/></g></g><g style="fill:#057bdd;fill-opacity:1;"><g transform="translate(30.944388, 28.82162)"><path style="stroke:none" d="M 1.8125 -1.203125 L 2.5625 0 L 1.53125 0 L 1.046875 -0.984375 L 0.875 0 L 0.015625 0 L 0.59375 -3.1875 L 1.4375 -3.1875 L 1.140625 -1.46875 L 1.96875 -2.421875 L 2.984375 -2.421875 Z M 1.8125 -1.203125 "/></g></g><g style="fill:#057bdd;fill-opacity:1;"><g transform="translate(33.734754, 28.82162)"><path style="stroke:none" d="M 0.921875 -2.640625 C 0.785156 -2.640625 0.675781 -2.671875 0.59375 -2.734375 C 0.519531 -2.804688 0.484375 -2.894531 0.484375 -3 C 0.484375 -3.09375 0.507812 -3.175781 0.5625 -3.25 C 0.613281 -3.332031 0.679688 -3.394531 0.765625 -3.4375 C 0.859375 -3.488281 0.957031 -3.515625 1.0625 -3.515625 C 1.195312 -3.515625 1.300781 -3.476562 1.375 -3.40625 C 1.457031 -3.34375 1.5 -3.257812 1.5 -3.15625 C 1.5 -3.0625 1.472656 -2.972656 1.421875 -2.890625 C 1.367188 -2.816406 1.296875 -2.753906 1.203125 -2.703125 C 1.117188 -2.660156 1.023438 -2.640625 0.921875 -2.640625 Z M 1.296875 -2.421875 L 0.875 0 L 0.015625 0 L 0.453125 -2.421875 Z M 1.296875 -2.421875 "/></g></g><g style="fill:#057bdd;fill-opacity:1;"><g transform="translate(35.06309, 28.82162)"><path style="stroke:none" d="M 1.21875 -1.984375 C 1.332031 -2.117188 1.460938 -2.226562 1.609375 -2.3125 C 1.765625 -2.394531 1.921875 -2.4375 2.078125 -2.4375 L 1.921875 -1.546875 L 1.6875 -1.546875 C 1.507812 -1.546875 1.367188 -1.507812 1.265625 -1.4375 C 1.160156 -1.375 1.09375 -1.257812 1.0625 -1.09375 L 0.875 0 L 0.015625 0 L 0.453125 -2.421875 L 1.296875 -2.421875 Z M 1.21875 -1.984375 "/></g></g><g style="fill:#057bdd;fill-opacity:1;"><g transform="translate(36.990904, 28.82162)"><path style="stroke:none" d="M 1.8125 -1.203125 L 2.5625 0 L 1.53125 0 L 1.046875 -0.984375 L 0.875 0 L 0.015625 0 L 0.59375 -3.1875 L 1.4375 -3.1875 L 1.140625 -1.46875 L 1.96875 -2.421875 L 2.984375 -2.421875 Z M 1.8125 -1.203125 "/></g></g><g style="fill:#057bdd;fill-opacity:1;"><g transform="translate(39.78127, 28.82162)"><path style="stroke:none" d="M 2.921875 -2.421875 L 2.5 0 L 1.65625 0 L 1.71875 -0.34375 C 1.613281 -0.238281 1.492188 -0.148438 1.359375 -0.078125 C 1.222656 -0.015625 1.078125 0.015625 0.921875 0.015625 C 0.679688 0.015625 0.492188 -0.0507812 0.359375 -0.1875 C 0.222656 -0.320312 0.15625 -0.507812 0.15625 -0.75 C 0.15625 -0.832031 0.164062 -0.921875 0.1875 -1.015625 L 0.4375 -2.421875 L 1.28125 -2.421875 L 1.046875 -1.125 C 1.035156 -1.082031 1.03125 -1.046875 1.03125 -1.015625 C 1.03125 -0.910156 1.0625 -0.828125 1.125 -0.765625 C 1.1875 -0.703125 1.269531 -0.671875 1.375 -0.671875 C 1.488281 -0.671875 1.585938 -0.707031 1.671875 -0.78125 C 1.753906 -0.863281 1.8125 -0.96875 1.84375 -1.09375 L 2.078125 -2.421875 Z M 2.921875 -2.421875 "/></g></g></g></svg>